<?xml version="1.0" standalone="no"?>
<!DOCTYPE svg PUBLIC "-//W3C//DTD SVG 20010904//EN"
 "http://www.w3.org/TR/2001/REC-SVG-20010904/DTD/svg10.dtd">
<svg version="1.0" xmlns="http://www.w3.org/2000/svg"
 width="320.000000pt" height="320.000000pt" viewBox="0 0 320.000000 320.000000"
 preserveAspectRatio="xMidYMid meet">
<metadata>
Created by potrace 1.11, written by Peter Selinger 2001-2013
</metadata>
<g transform="translate(0.000000,320.000000) scale(0.100000,-0.100000)"
fill="#000000" stroke="none">
<path d="M2270 3190 c0 -5 5 -10 10 -10 6 0 10 5 10 10 0 6 -4 10 -10 10 -5 0
-10 -4 -10 -10z"/>
<path d="M2385 3190 c3 -5 8 -10 11 -10 2 0 4 5 4 10 0 6 -5 10 -11 10 -5 0
-7 -4 -4 -10z"/>
<path d="M2430 3116 c0 -2 7 -7 16 -10 8 -3 12 -2 9 4 -6 10 -25 14 -25 6z"/>
<path d="M2205 3050 c-3 -5 1 -10 9 -10 9 0 16 5 16 10 0 6 -4 10 -9 10 -6 0
-13 -4 -16 -10z"/>
<path d="M2588 3040 c34 -21 100 -50 111 -50 9 1 -122 69 -134 69 -5 1 5 -8
23 -19z"/>
<path d="M2750 2963 c15 -6 79 -33 93 -40 4 -2 7 -2 7 1 0 8 -87 46 -102 45
-9 0 -8 -2 2 -6z"/>
<path d="M2855 2960 c27 -12 43 -12 25 0 -8 5 -22 9 -30 9 -10 0 -8 -3 5 -9z"/>
<path d="M2362 2941 c-6 -3 4 -11 24 -17 19 -6 34 -8 34 -4 0 11 -46 29 -58
21z"/>
<path d="M2230 2911 c0 -21 23 -45 33 -34 13 12 7 41 -9 47 -23 9 -24 8 -24
-13z"/>
<path d="M2991 2906 c10 -10 103 -56 113 -56 6 0 -16 14 -48 30 -54 28 -76 36
-65 26z"/>
<path d="M2955 2870 c3 -5 8 -10 11 -10 2 0 4 5 4 10 0 6 -5 10 -11 10 -5 0
-7 -4 -4 -10z"/>
<path d="M3004 2845 c36 -19 45 -19 20 0 -10 8 -26 14 -34 15 -8 0 -2 -7 14
-15z"/>
<path d="M1960 2823 c0 -5 30 -17 65 -29 70 -22 73 -18 10 15 -40 21 -75 27
-75 14z"/>
<path d="M3050 2826 c0 -2 7 -7 16 -10 8 -3 12 -2 9 4 -6 10 -25 14 -25 6z"/>
<path d="M1950 2786 c27 -26 55 -37 55 -21 1 6 -17 18 -40 28 l-40 18 25 -25z"/>
<path d="M3125 2790 c22 -10 49 -18 60 -18 25 0 -25 22 -70 31 -26 6 -25 4 10
-13z"/>
<path d="M2410 2760 c0 -5 7 -7 15 -4 8 4 15 8 15 10 0 2 -7 4 -15 4 -8 0 -15
-4 -15 -10z"/>
<path d="M2890 2724 c-8 -21 -17 -43 -19 -49 -2 -5 5 -2 16 7 18 17 20 17 38
0 19 -16 19 -16 3 3 -9 11 -18 33 -20 49 l-3 30 -15 -40z"/>
<path d="M872 2709 c-23 -15 -41 -19 -62 -15 -17 3 -43 9 -58 12 -21 4 -40 -3
-81 -30 -35 -24 -60 -34 -72 -31 -32 11 -58 -5 -85 -50 l-26 -45 -36 16 c-20
8 -47 12 -59 9 -21 -5 -23 -11 -23 -65 l0 -60 -34 0 c-49 0 -61 -19 -47 -77
15 -56 8 -62 -58 -55 -46 4 -49 3 -84 -39 -38 -44 -49 -91 -25 -106 7 -4 65
-8 128 -9 115 -1 290 -34 290 -55 0 -27 41 0 107 71 42 44 100 94 130 111 80
46 112 76 106 99 -3 11 2 41 10 67 8 27 18 67 22 91 4 23 15 48 25 55 10 7 24
26 31 41 12 26 11 30 -19 57 -38 34 -38 34 -80 8z"/>
<path d="M2136 2705 c10 -8 24 -14 29 -14 6 0 1 6 -9 14 -11 8 -24 15 -30 15
-5 0 -1 -7 10 -15z"/>
<path d="M2340 2655 c25 -13 50 -24 55 -24 6 0 -10 11 -35 24 -25 13 -49 24
-55 24 -5 0 10 -11 35 -24z"/>
<path d="M2734 2651 c3 -5 20 -14 38 -20 38 -13 26 0 -15 17 -16 7 -26 8 -23
3z"/>
<path d="M1453 2643 c-7 -3 -13 -10 -13 -16 0 -7 -9 -23 -19 -36 l-18 -24 -24
21 c-23 22 -49 29 -49 14 0 -5 14 -21 30 -37 17 -16 30 -34 30 -40 0 -6 -42
-19 -97 -29 -95 -18 -205 -45 -251 -63 -22 -9 -22 -9 7 -26 24 -14 37 -15 81
-7 79 15 88 13 123 -24 25 -27 43 -36 80 -42 l49 -7 48 52 c45 48 90 73 90 50
0 -5 -7 -26 -15 -46 -8 -19 -15 -42 -15 -51 0 -13 3 -12 20 3 42 38 80 108 80
146 0 43 -7 47 -89 48 -30 0 -56 3 -59 6 -3 3 5 26 17 51 22 44 20 67 -6 57z"/>
<path d="M2982 2630 c-18 -29 -16 -30 28 -13 28 11 37 19 28 25 -22 13 -43 9
-56 -12z"/>
<path d="M2561 2556 c10 -9 69 -36 69 -32 0 6 -55 36 -66 36 -4 0 -5 -2 -3 -4z"/>
<path d="M2959 2547 c15 -18 81 -24 81 -7 0 6 -13 10 -29 10 -16 0 -38 3 -48
7 -16 6 -16 5 -4 -10z"/>
<path d="M1795 2543 l-70 -4 70 -25 c99 -36 117 -38 159 -20 44 18 83 20 120
6 18 -7 33 -5 53 5 15 8 24 15 18 15 -5 0 -53 7 -105 15 -52 8 -113 14 -135
13 -22 -1 -71 -4 -110 -5z"/>
<path d="M2369 2534 c-1 -10 -3 -26 -4 -34 -1 -8 -3 -21 -4 -28 0 -8 -9 -10
-26 -6 -38 9 -30 -12 15 -42 35 -24 43 -25 69 -14 20 8 31 21 35 41 8 43 7 44
-19 41 -16 -2 -25 1 -25 11 0 8 -9 22 -20 32 -19 17 -20 17 -21 -1z"/>
<path d="M2530 2520 c30 -16 60 -29 65 -29 6 0 -15 13 -45 29 -30 16 -59 29
-65 29 -5 0 15 -13 45 -29z"/>
<path d="M2650 2510 c8 -5 20 -10 25 -10 6 0 3 5 -5 10 -8 5 -19 10 -25 10 -5
0 -3 -5 5 -10z"/>
<path d="M3095 2500 c3 -5 8 -10 11 -10 2 0 4 5 4 10 0 6 -5 10 -11 10 -5 0
-7 -4 -4 -10z"/>
<path d="M3167 2483 c-14 -13 -6 -33 13 -33 13 0 20 7 20 20 0 19 -20 27 -33
13z"/>
<path d="M2670 2455 c25 -13 50 -24 55 -24 6 0 -10 11 -35 24 -25 13 -49 24
-55 24 -5 0 10 -11 35 -24z"/>
<path d="M2740 2426 c0 -2 7 -7 16 -10 8 -3 12 -2 9 4 -6 10 -25 14 -25 6z"/>
<path d="M2810 2392 c61 -30 90 -42 90 -37 0 6 -105 55 -117 55 -4 -1 8 -9 27
-18z"/>
<path d="M3075 2269 c54 -27 105 -49 112 -49 7 0 13 9 13 20 0 18 -3 19 -21
10 -16 -9 -35 -4 -105 29 -47 23 -88 41 -92 40 -4 0 38 -22 93 -50z"/>
<path d="M2753 2277 c-17 -9 -19 -16 -12 -30 6 -9 9 -26 7 -36 -2 -11 18 -45
48 -83 28 -34 65 -91 82 -124 44 -88 122 -363 122 -431 0 -28 -17 -3 -38 54
-24 65 -161 320 -199 371 -13 17 -31 32 -39 32 -22 0 -17 -47 16 -130 28 -69
29 -76 13 -87 -9 -7 -20 -13 -24 -13 -12 0 -49 51 -49 67 0 8 -7 28 -16 44
-13 25 -18 28 -30 18 -29 -24 -34 -46 -19 -82 11 -26 12 -43 5 -68 -13 -46
-13 -46 14 -53 27 -7 92 -63 83 -72 -3 -4 -36 10 -72 30 -55 32 -76 37 -133
39 -56 2 -77 -3 -126 -27 -117 -57 -196 -174 -204 -302 -6 -92 8 -132 64 -184
61 -56 124 -82 210 -88 100 -6 190 24 257 87 61 56 73 80 80 157 6 56 4 66
-19 100 -40 58 -44 77 -27 112 19 40 54 50 89 28 45 -30 49 -62 15 -130 -22
-45 -27 -65 -20 -78 13 -24 60 -23 101 2 34 20 88 27 88 11 0 -5 3 -16 6 -24
10 -26 -22 -46 -66 -40 -36 5 -40 3 -40 -15 0 -11 5 -24 11 -27 5 -4 14 -18
19 -31 13 -34 42 -30 84 10 32 30 36 39 36 84 0 58 25 119 52 128 10 3 18 12
18 20 0 53 -36 233 -60 305 -17 48 -30 89 -30 92 0 4 15 14 33 23 54 28 58 54
8 54 -20 0 -34 8 -45 25 -9 14 -21 23 -25 20 -5 -3 -54 39 -110 94 -99 97
-100 99 -80 116 11 10 16 22 12 25 -16 14 -69 18 -90 7z m-209 -658 c67 -58
55 -138 -27 -178 -50 -24 -68 -26 -114 -9 -38 14 -46 32 -45 102 1 45 6 55 37
84 48 44 100 45 149 1z m75 -333 c10 -12 9 -17 -6 -24 -22 -12 -53 2 -53 23 0
19 44 20 59 1z"/>
<path d="M2086 2221 c-10 -16 5 -41 29 -47 40 -10 60 -1 60 26 0 22 -5 25 -42
28 -22 2 -44 -1 -47 -7z"/>
<path d="M415 2068 c-6 -12 -17 -22 -26 -24 -65 -8 -72 -37 -12 -49 l36 -6
-44 -47 c-58 -60 -110 -137 -112 -162 -1 -11 -6 -20 -12 -20 -13 0 -64 -81
-74 -117 -6 -22 -15 -29 -49 -36 -46 -9 -53 -25 -21 -45 24 -16 24 -20 -21
-142 -23 -63 -33 -109 -37 -177 -5 -82 -8 -93 -24 -93 -14 0 -19 -7 -19 -30 0
-19 5 -30 14 -30 12 0 14 -27 14 -148 0 -81 6 -186 12 -232 13 -96 52 -256 75
-303 18 -40 94 -226 102 -249 5 -16 -2 -18 -43 -18 -44 0 -47 -1 -29 -14 11
-7 37 -19 57 -25 38 -13 88 -62 88 -87 0 -11 24 -14 125 -14 85 0 125 4 125
11 0 14 -54 116 -79 149 l-19 24 -19 -22 c-10 -13 -34 -25 -55 -29 -31 -5 -40
-1 -62 22 -50 53 -22 117 52 119 23 0 42 4 42 7 0 12 -50 140 -69 177 -33 65
-79 215 -94 307 -17 108 -16 389 3 488 11 59 10 70 -4 92 -20 30 -20 44 -1 65
8 8 25 47 39 85 23 67 81 213 96 245 4 8 5 21 3 27 -7 18 -52 -14 -65 -46 -8
-19 -12 -22 -16 -11 -3 8 -9 18 -15 21 -6 4 -6 18 -2 35 5 16 9 34 9 39 1 6 3
10 6 10 14 0 37 31 28 36 -5 4 3 10 19 13 15 4 36 15 45 23 10 9 25 13 34 9
10 -4 26 3 42 19 13 14 28 25 32 25 4 0 10 10 13 22 5 16 -4 34 -28 64 -19 23
-35 47 -35 53 0 19 -15 12 -25 -11z"/>
<path d="M1266 2015 c-53 -32 -63 -51 -35 -66 18 -9 28 -7 63 18 44 31 61 73
29 73 -10 0 -36 -11 -57 -25z"/>
<path d="M840 1660 c-146 -13 -198 -40 -235 -122 -21 -48 -26 -73 -27 -152 -1
-85 2 -99 26 -139 32 -56 70 -79 164 -102 70 -17 77 -17 137 0 87 23 192 110
225 186 50 117 41 147 -83 267 -53 51 -82 72 -98 71 -13 -1 -62 -5 -109 -9z
m63 -108 c31 -33 43 -80 24 -103 -16 -21 -87 -59 -110 -59 -29 0 -72 26 -86
53 -10 20 -11 32 -2 60 14 42 25 52 71 65 57 16 75 14 103 -16z m22 -252 c22
-24 13 -53 -16 -48 -27 4 -44 30 -36 52 9 22 30 20 52 -4z"/>
<path d="M2712 1145 c-13 -7 -39 -27 -59 -44 -27 -24 -44 -31 -75 -31 -84 0
-180 -23 -227 -54 -60 -40 -64 -66 -18 -110 45 -42 93 -65 165 -78 58 -10 68
-8 135 28 27 15 30 15 51 -5 28 -26 80 -27 138 -3 24 11 60 22 81 26 67 12 62
65 -12 136 -26 25 -59 62 -74 82 -17 22 -38 39 -57 43 -17 4 -28 11 -24 16 6
11 5 11 -24 -6z"/>
<path d="M565 1030 c-176 -20 -241 -91 -153 -165 38 -32 75 -40 241 -55 109
-10 159 -10 235 0 117 15 142 23 177 60 l26 28 -30 35 c-37 41 -97 61 -141 45
-29 -10 -70 3 -70 22 0 5 -23 16 -52 25 -53 16 -129 17 -233 5z"/>
<path d="M1648 843 c-9 -10 -26 -55 -38 -101 -31 -116 -50 -139 -149 -189 -97
-50 -154 -56 -226 -23 -45 21 -69 19 -79 -6 -8 -22 4 -43 35 -59 36 -19 75
-19 129 0 23 8 58 15 76 15 78 0 216 74 261 139 32 46 44 47 54 7 16 -59 87
-112 203 -151 82 -27 129 -31 220 -14 142 25 240 115 210 193 -8 20 -46 20
-84 1 -31 -16 -38 -31 -19 -37 17 -6 -4 -41 -37 -63 -33 -21 -117 -45 -161
-45 -51 0 -158 48 -200 89 -24 24 -52 70 -77 127 -21 49 -44 99 -52 112 -17
26 -45 29 -66 5z"/>
<path d="M430 600 c-11 -32 -11 -52 -3 -88 37 -155 51 -189 75 -179 25 9 27
42 6 89 -12 26 -17 54 -14 71 5 25 -24 120 -43 140 -4 4 -14 -11 -21 -33z"/>
<path d="M626 625 c-9 -9 -16 -22 -16 -29 0 -24 25 -66 37 -62 6 3 14 0 16 -7
10 -29 14 3 6 48 -11 60 -21 71 -43 50z"/>
<path d="M840 300 c-19 -19 -21 -28 -13 -58 4 -21 7 -73 5 -117 -3 -94 9 -125
49 -125 34 0 36 5 44 126 10 160 -26 233 -85 174z"/>
<path d="M3045 255 c-14 -20 -27 -48 -28 -62 -2 -24 4 -30 40 -42 39 -14 45
-14 59 1 14 14 14 17 -7 37 -17 16 -23 31 -21 55 5 48 -11 52 -43 11z"/>
<path d="M746 34 c-10 -27 -7 -34 19 -34 27 0 33 18 13 38 -16 16 -25 15 -32
-4z"/>
</g>
</svg>
